<svg width="500" height="500" viewBox="0 0 500 500" fill="none" xmlns="http://www.w3.org/2000/svg">
<g clip-path="url(#clip0)">
<path d="M126 68.6241L172.018 114.057M172.018 16L202.685 81.6241L282 126" stroke="black" stroke-width="5"/>
<path d="M168 141L267 154.5" stroke="black" stroke-width="5"/>
<path d="M263 248.754L330.855 228L375.5 299" stroke="black" stroke-width="5"/>
<path d="M226 298.682L293.507 278L338 348" stroke="black" stroke-width="5"/>
<path d="M181 323L99.75 363.652L75 450" stroke="black" stroke-width="5"/>
<path d="M59 329L11 466" stroke="black" stroke-width="5"/>
<path d="M201 175L170.444 247.538L71.1389 298L36 271.192" stroke="black" stroke-width="5"/>
<g filter="url(#filter0_d)">
<path d="M148.7 391.9C142.1 391.9 136.067 393.6 130.6 397C125.2 400.333 120.9 404.833 117.7 410.5C114.567 416.1 113 422.133 113 428.6C113 435.133 114.6 441.2 117.8 446.8C121 452.4 125.233 456.867 130.5 460.2C135.833 463.467 141.567 465.1 147.7 465.1C151.3 465.1 154.5 464.767 157.3 464.1C160.167 463.433 162.9 462.367 165.5 460.9V437.4H140.7V434.5H168.8V458.8L169 458.7V462.4C165.8 464.333 162.5 465.733 159.1 466.6C155.767 467.533 152.1 468 148.1 468C141.1 468 134.667 466.3 128.8 462.9C122.933 459.433 118.267 454.7 114.8 448.7C111.4 442.633 109.7 435.833 109.7 428.3C109.7 421.033 111.467 414.4 115 408.4C118.6 402.4 123.367 397.667 129.3 394.2C135.3 390.733 141.667 389 148.4 389C153.067 389 156.767 389.433 159.5 390.3C162.233 391.1 165.4 392.533 169 394.6V398.3C165.6 395.967 162.433 394.333 159.5 393.4C156.633 392.4 153.033 391.9 148.7 391.9ZM252.729 466H249.229L235.029 437.4H195.229L181.329 466H177.829L215.229 389.2L252.729 466ZM233.829 434.5L215.029 396.4L196.629 434.5H233.829ZM299.077 468C292.077 468 285.643 466.3 279.777 462.9C273.91 459.433 269.243 454.7 265.777 448.7C262.377 442.633 260.677 435.833 260.677 428.3C260.677 421.033 262.443 414.4 265.977 408.4C269.577 402.4 274.343 397.667 280.277 394.2C286.277 390.733 292.643 389 299.377 389C304.043 389 307.743 389.433 310.477 390.3C313.21 391.1 316.377 392.533 319.977 394.6V398.3C316.577 395.967 313.41 394.333 310.477 393.4C307.61 392.4 304.01 391.9 299.677 391.9C293.077 391.9 287.043 393.6 281.577 397C276.177 400.333 271.877 404.833 268.677 410.5C265.543 416.1 263.977 422.133 263.977 428.6C263.977 435.133 265.577 441.2 268.777 446.8C271.977 452.4 276.21 456.867 281.477 460.2C286.81 463.467 292.543 465.1 298.677 465.1C303.077 465.1 306.91 464.6 310.177 463.6C313.443 462.533 316.71 460.9 319.977 458.7V462.4C316.777 464.333 313.477 465.733 310.077 466.6C306.743 467.533 303.077 468 299.077 468ZM334.189 391H361.089V393.9H337.489V434.7H357.189V437.6H337.489V463.1H361.089V466H334.189V391ZM371.591 391H374.891V463.1H398.091V466H371.591V391ZM478.315 466H474.815L460.615 437.4H420.815L406.915 466H403.415L440.815 389.2L478.315 466ZM459.415 434.5L440.615 396.4L422.215 434.5H459.415Z" fill="black"/>
<path d="M130.6 397L131.125 397.851L131.128 397.849L130.6 397ZM117.7 410.5L116.829 410.008L116.827 410.012L117.7 410.5ZM117.8 446.8L116.932 447.296L116.932 447.296L117.8 446.8ZM130.5 460.2L129.965 461.045L129.971 461.049L129.978 461.053L130.5 460.2ZM157.3 464.1L157.073 463.126L157.068 463.127L157.3 464.1ZM165.5 460.9L165.991 461.771L166.5 461.484V460.9H165.5ZM165.5 437.4H166.5V436.4H165.5V437.4ZM140.7 437.4H139.7V438.4H140.7V437.4ZM140.7 434.5V433.5H139.7V434.5H140.7ZM168.8 434.5H169.8V433.5H168.8V434.5ZM168.8 458.8H167.8V460.418L169.247 459.694L168.8 458.8ZM169 458.7H170V457.082L168.553 457.806L169 458.7ZM169 462.4L169.517 463.256L170 462.964V462.4H169ZM159.1 466.6L158.853 465.631L158.842 465.634L158.83 465.637L159.1 466.6ZM128.8 462.9L128.291 463.761L128.299 463.765L128.8 462.9ZM114.8 448.7L113.928 449.189L113.934 449.2L114.8 448.7ZM115 408.4L114.142 407.885L114.138 407.893L115 408.4ZM129.3 394.2L128.8 393.334L128.796 393.337L129.3 394.2ZM159.5 390.3L159.198 391.253L159.208 391.257L159.219 391.26L159.5 390.3ZM169 394.6H170V394.021L169.498 393.733L169 394.6ZM169 398.3L168.434 399.125L170 400.199V398.3H169ZM159.5 393.4L159.171 394.344L159.184 394.349L159.197 394.353L159.5 393.4ZM148.7 390.9C141.918 390.9 135.701 392.65 130.072 396.151L131.128 397.849C136.432 394.55 142.282 392.9 148.7 392.9V390.9ZM130.075 396.149C124.527 399.573 120.11 404.199 116.829 410.008L118.571 410.992C121.69 405.468 125.873 401.093 131.125 397.851L130.075 396.149ZM116.827 410.012C113.61 415.762 112 421.964 112 428.6H114C114 422.303 115.524 416.438 118.573 410.988L116.827 410.012ZM112 428.6C112 435.305 113.644 441.543 116.932 447.296L118.668 446.304C115.556 440.857 114 434.962 114 428.6H112ZM116.932 447.296C120.21 453.033 124.556 457.621 129.965 461.045L131.035 459.355C125.911 456.112 121.79 451.767 118.668 446.304L116.932 447.296ZM129.978 461.053C135.465 464.414 141.379 466.1 147.7 466.1V464.1C141.755 464.1 136.202 462.52 131.022 459.347L129.978 461.053ZM147.7 466.1C151.359 466.1 154.64 465.761 157.532 465.073L157.068 463.127C154.36 463.772 151.241 464.1 147.7 464.1V466.1ZM157.527 465.074C160.487 464.385 163.31 463.284 165.991 461.771L165.009 460.029C162.49 461.45 159.846 462.481 157.073 463.126L157.527 465.074ZM166.5 460.9V437.4H164.5V460.9H166.5ZM165.5 436.4H140.7V438.4H165.5V436.4ZM141.7 437.4V434.5H139.7V437.4H141.7ZM140.7 435.5H168.8V433.5H140.7V435.5ZM167.8 434.5V458.8H169.8V434.5H167.8ZM169.247 459.694L169.447 459.594L168.553 457.806L168.353 457.906L169.247 459.694ZM168 458.7V462.4H170V458.7H168ZM168.483 461.544C165.361 463.43 162.152 464.79 158.853 465.631L159.347 467.569C162.848 466.677 166.239 465.237 169.517 463.256L168.483 461.544ZM158.83 465.637C155.597 466.542 152.023 467 148.1 467V469C152.177 469 155.936 468.524 159.37 467.563L158.83 465.637ZM148.1 467C141.27 467 135.011 465.344 129.301 462.035L128.299 463.765C134.323 467.256 140.93 469 148.1 469V467ZM129.309 462.039C123.593 458.661 119.048 454.053 115.666 448.2L113.934 449.2C117.485 455.347 122.274 460.205 128.291 463.761L129.309 462.039ZM115.672 448.211C112.363 442.306 110.7 435.677 110.7 428.3H108.7C108.7 435.99 110.437 442.961 113.928 449.189L115.672 448.211ZM110.7 428.3C110.7 421.204 112.423 414.747 115.862 408.907L114.138 407.893C110.51 414.053 108.7 420.863 108.7 428.3H110.7ZM115.857 408.914C119.373 403.056 124.019 398.444 129.804 395.063L128.796 393.337C122.714 396.89 117.827 401.744 114.143 407.886L115.857 408.914ZM129.8 395.066C135.653 391.684 141.848 390 148.4 390V388C141.486 388 134.947 389.782 128.8 393.334L129.8 395.066ZM148.4 390C153.02 390 156.604 390.431 159.198 391.253L159.802 389.347C156.929 388.436 153.113 388 148.4 388V390ZM159.219 391.26C161.851 392.03 164.942 393.424 168.502 395.467L169.498 393.733C165.858 391.643 162.616 390.17 159.781 389.34L159.219 391.26ZM168 394.6V398.3H170V394.6H168ZM169.566 397.475C166.111 395.104 162.855 393.418 159.803 392.447L159.197 394.353C162.011 395.248 165.089 396.829 168.434 399.125L169.566 397.475ZM159.829 392.456C156.822 391.407 153.102 390.9 148.7 390.9V392.9C152.965 392.9 156.445 393.393 159.171 394.344L159.829 392.456ZM252.729 466V467H254.33L253.628 465.561L252.729 466ZM249.229 466L248.333 466.445L248.609 467H249.229V466ZM235.029 437.4L235.925 436.955L235.649 436.4H235.029V437.4ZM195.229 437.4V436.4H194.603L194.33 436.963L195.229 437.4ZM181.329 466V467H181.955L182.228 466.437L181.329 466ZM177.829 466L176.93 465.562L176.23 467H177.829V466ZM215.229 389.2L216.128 388.761L215.228 386.918L214.33 388.762L215.229 389.2ZM233.829 434.5V435.5H235.437L234.726 434.057L233.829 434.5ZM215.029 396.4L215.926 395.957L215.019 394.121L214.128 395.965L215.029 396.4ZM196.629 434.5L195.728 434.065L195.035 435.5H196.629V434.5ZM252.729 465H249.229V467H252.729V465ZM250.125 465.555L235.925 436.955L234.133 437.845L248.333 466.445L250.125 465.555ZM235.029 436.4H195.229V438.4H235.029V436.4ZM194.33 436.963L180.43 465.563L182.228 466.437L196.128 437.837L194.33 436.963ZM181.329 465H177.829V467H181.329V465ZM178.728 466.438L216.128 389.638L214.33 388.762L176.93 465.562L178.728 466.438ZM214.33 389.639L251.83 466.439L253.628 465.561L216.128 388.761L214.33 389.639ZM234.726 434.057L215.926 395.957L214.132 396.842L232.932 434.942L234.726 434.057ZM214.128 395.965L195.728 434.065L197.529 434.935L215.929 396.835L214.128 395.965ZM196.629 435.5H233.829V433.5H196.629V435.5ZM279.777 462.9L279.268 463.761L279.275 463.765L279.777 462.9ZM265.777 448.7L264.904 449.189L264.911 449.2L265.777 448.7ZM265.977 408.4L265.119 407.885L265.115 407.893L265.977 408.4ZM280.277 394.2L279.776 393.334L279.772 393.337L280.277 394.2ZM310.477 390.3L310.174 391.253L310.185 391.257L310.196 391.26L310.477 390.3ZM319.977 394.6H320.977V394.021L320.474 393.733L319.977 394.6ZM319.977 398.3L319.411 399.125L320.977 400.199V398.3H319.977ZM310.477 393.4L310.147 394.344L310.16 394.349L310.173 394.353L310.477 393.4ZM281.577 397L282.102 397.851L282.105 397.849L281.577 397ZM268.677 410.5L267.806 410.008L267.804 410.012L268.677 410.5ZM268.777 446.8L267.908 447.296L267.908 447.296L268.777 446.8ZM281.477 460.2L280.942 461.045L280.948 461.049L280.954 461.053L281.477 460.2ZM310.177 463.6L310.469 464.556L310.478 464.553L310.487 464.551L310.177 463.6ZM319.977 458.7H320.977V456.821L319.418 457.871L319.977 458.7ZM319.977 462.4L320.494 463.256L320.977 462.964V462.4H319.977ZM310.077 466.6L309.83 465.631L309.818 465.634L309.807 465.637L310.077 466.6ZM299.077 467C292.247 467 285.987 465.344 280.278 462.035L279.275 463.765C285.299 467.256 291.906 469 299.077 469V467ZM280.285 462.039C274.569 458.661 270.025 454.053 266.642 448.2L264.911 449.2C268.462 455.347 273.25 460.205 279.268 463.761L280.285 462.039ZM266.649 448.211C263.339 442.306 261.677 435.677 261.677 428.3H259.677C259.677 435.99 261.414 442.961 264.904 449.189L266.649 448.211ZM261.677 428.3C261.677 421.204 263.4 414.747 266.838 408.907L265.115 407.893C261.487 414.053 259.677 420.863 259.677 428.3H261.677ZM266.834 408.914C270.349 403.056 274.996 398.444 280.781 395.063L279.772 393.337C273.691 396.89 268.804 401.744 265.119 407.886L266.834 408.914ZM280.777 395.066C286.629 391.684 292.824 390 299.377 390V388C292.462 388 285.924 389.782 279.776 393.334L280.777 395.066ZM299.377 390C303.996 390 307.581 390.431 310.174 391.253L310.779 389.347C307.906 388.436 304.09 388 299.377 388V390ZM310.196 391.26C312.827 392.03 315.919 393.424 319.479 395.467L320.474 393.733C316.834 391.643 313.592 390.17 310.757 389.34L310.196 391.26ZM318.977 394.6V398.3H320.977V394.6H318.977ZM320.542 397.475C317.087 395.104 313.832 393.418 310.78 392.447L310.173 394.353C312.988 395.248 316.066 396.829 319.411 399.125L320.542 397.475ZM310.806 392.456C307.799 391.407 304.078 390.9 299.677 390.9V392.9C303.942 392.9 307.421 393.393 310.147 394.344L310.806 392.456ZM299.677 390.9C292.895 390.9 286.678 392.65 281.048 396.151L282.105 397.849C287.409 394.55 293.258 392.9 299.677 392.9V390.9ZM281.051 396.149C275.504 399.573 271.087 404.199 267.806 410.008L269.547 410.992C272.667 405.468 276.849 401.093 282.102 397.851L281.051 396.149ZM267.804 410.012C264.586 415.762 262.977 421.964 262.977 428.6H264.977C264.977 422.303 266.5 416.438 269.549 410.988L267.804 410.012ZM262.977 428.6C262.977 435.305 264.621 441.543 267.908 447.296L269.645 446.304C266.532 440.857 264.977 434.962 264.977 428.6H262.977ZM267.908 447.296C271.186 453.033 275.532 457.621 280.942 461.045L282.011 459.355C276.888 456.112 272.767 451.767 269.645 446.304L267.908 447.296ZM280.954 461.053C286.442 464.414 292.355 466.1 298.677 466.1V464.1C292.731 464.1 287.178 462.52 281.999 459.347L280.954 461.053ZM298.677 466.1C303.149 466.1 307.085 465.592 310.469 464.556L309.884 462.644C306.735 463.608 303.004 464.1 298.677 464.1V466.1ZM310.487 464.551C313.853 463.451 317.203 461.774 320.535 459.529L319.418 457.871C316.217 460.026 313.033 461.615 309.866 462.649L310.487 464.551ZM318.977 458.7V462.4H320.977V458.7H318.977ZM319.459 461.544C316.338 463.43 313.128 464.79 309.83 465.631L310.324 467.569C313.825 466.677 317.215 465.237 320.494 463.256L319.459 461.544ZM309.807 465.637C306.574 466.542 302.999 467 299.077 467V469C303.154 469 306.913 468.524 310.346 467.563L309.807 465.637ZM334.189 391V390H333.189V391H334.189ZM361.089 391H362.089V390H361.089V391ZM361.089 393.9V394.9H362.089V393.9H361.089ZM337.489 393.9V392.9H336.489V393.9H337.489ZM337.489 434.7H336.489V435.7H337.489V434.7ZM357.189 434.7H358.189V433.7H357.189V434.7ZM357.189 437.6V438.6H358.189V437.6H357.189ZM337.489 437.6V436.6H336.489V437.6H337.489ZM337.489 463.1H336.489V464.1H337.489V463.1ZM361.089 463.1H362.089V462.1H361.089V463.1ZM361.089 466V467H362.089V466H361.089ZM334.189 466H333.189V467H334.189V466ZM334.189 392H361.089V390H334.189V392ZM360.089 391V393.9H362.089V391H360.089ZM361.089 392.9H337.489V394.9H361.089V392.9ZM336.489 393.9V434.7H338.489V393.9H336.489ZM337.489 435.7H357.189V433.7H337.489V435.7ZM356.189 434.7V437.6H358.189V434.7H356.189ZM357.189 436.6H337.489V438.6H357.189V436.6ZM336.489 437.6V463.1H338.489V437.6H336.489ZM337.489 464.1H361.089V462.1H337.489V464.1ZM360.089 463.1V466H362.089V463.1H360.089ZM361.089 465H334.189V467H361.089V465ZM335.189 466V391H333.189V466H335.189ZM371.591 391V390H370.591V391H371.591ZM374.891 391H375.891V390H374.891V391ZM374.891 463.1H373.891V464.1H374.891V463.1ZM398.091 463.1H399.091V462.1H398.091V463.1ZM398.091 466V467H399.091V466H398.091ZM371.591 466H370.591V467H371.591V466ZM371.591 392H374.891V390H371.591V392ZM373.891 391V463.1H375.891V391H373.891ZM374.891 464.1H398.091V462.1H374.891V464.1ZM397.091 463.1V466H399.091V463.1H397.091ZM398.091 465H371.591V467H398.091V465ZM372.591 466V391H370.591V466H372.591ZM478.315 466V467H479.916L479.213 465.561L478.315 466ZM474.815 466L473.919 466.445L474.195 467H474.815V466ZM460.615 437.4L461.511 436.955L461.235 436.4H460.615V437.4ZM420.815 437.4V436.4H420.189L419.915 436.963L420.815 437.4ZM406.915 466V467H407.541L407.814 466.437L406.915 466ZM403.415 466L402.516 465.562L401.816 467H403.415V466ZM440.815 389.2L441.713 388.761L440.814 386.918L439.916 388.762L440.815 389.2ZM459.415 434.5V435.5H461.023L460.312 434.057L459.415 434.5ZM440.615 396.4L441.512 395.957L440.605 394.121L439.714 395.965L440.615 396.4ZM422.215 434.5L421.314 434.065L420.621 435.5H422.215V434.5ZM478.315 465H474.815V467H478.315V465ZM475.711 465.555L461.511 436.955L459.719 437.845L473.919 466.445L475.711 465.555ZM460.615 436.4H420.815V438.4H460.615V436.4ZM419.915 436.963L406.015 465.563L407.814 466.437L421.714 437.837L419.915 436.963ZM406.915 465H403.415V467H406.915V465ZM404.314 466.438L441.714 389.638L439.916 388.762L402.516 465.562L404.314 466.438ZM439.916 389.639L477.416 466.439L479.213 465.561L441.713 388.761L439.916 389.639ZM460.312 434.057L441.512 395.957L439.718 396.842L458.518 434.942L460.312 434.057ZM439.714 395.965L421.314 434.065L423.115 434.935L441.515 396.835L439.714 395.965ZM422.215 435.5H459.415V433.5H422.215V435.5Z" fill="black"/>
</g>
<path d="M243 176L247 239" stroke="black" stroke-width="5"/>
</g>
<defs>
<filter id="filter0_d" x="104.7" y="386.918" width="379.216" height="90.0816" filterUnits="userSpaceOnUse" color-interpolation-filters="sRGB">
<feFlood flood-opacity="0" result="BackgroundImageFix"/>
<feColorMatrix in="SourceAlpha" type="matrix" values="0 0 0 0 0 0 0 0 0 0 0 0 0 0 0 0 0 0 127 0"/>
<feOffset dy="4"/>
<feGaussianBlur stdDeviation="2"/>
<feColorMatrix type="matrix" values="0 0 0 0 0 0 0 0 0 0 0 0 0 0 0 0 0 0 0.25 0"/>
<feBlend mode="normal" in2="BackgroundImageFix" result="effect1_dropShadow"/>
<feBlend mode="normal" in="SourceGraphic" in2="effect1_dropShadow" result="shape"/>
</filter>
<clipPath id="clip0">
<rect width="500" height="500" fill="white"/>
</clipPath>
</defs>
</svg>
